<svg width="1920" height="1080" viewBox="0 0 1920 1080" fill="none" xmlns="http://www.w3.org/2000/svg">
<rect x="56" y="646" width="70" height="146" fill="#C4C4C4"/>
<rect x="56" y="107" width="70" height="146" fill="#C4C4C4"/>
<rect x="972" y="107" width="70" height="146" fill="#C4C4C4"/>
<rect x="56" y="827" width="70" height="146" fill="#C4C4C4"/>
<rect x="56" y="288" width="70" height="146" fill="#C4C4C4"/>
<rect x="972" y="288" width="70" height="146" fill="#C4C4C4"/>
<rect x="177" y="646" width="70" height="146" fill="#C4C4C4"/>
<rect x="177" y="107" width="70" height="146" fill="#C4C4C4"/>
<rect x="1075" y="107" width="70" height="146" fill="#C4C4C4"/>
<rect x="177" y="827" width="70" height="146" fill="#C4C4C4"/>
<rect x="177" y="288" width="70" height="146" fill="#C4C4C4"/>
<rect x="1075" y="288" width="70" height="146" fill="#C4C4C4"/>
<rect x="298" y="646" width="70" height="146" fill="#C4C4C4"/>
<rect x="298" y="107" width="70" height="146" fill="#C4C4C4"/>
<rect x="1178" y="107" width="70" height="146" fill="#C4C4C4"/>
<rect x="298" y="827" width="70" height="146" fill="#C4C4C4"/>
<rect x="298" y="288" width="70" height="146" fill="#C4C4C4"/>
<rect x="1178" y="288" width="70" height="146" fill="#C4C4C4"/>
<rect x="419" y="646" width="70" height="146" fill="#C4C4C4"/>
<rect x="419" y="107" width="70" height="146" fill="#C4C4C4"/>
<rect x="1281" y="107" width="70" height="146" fill="#C4C4C4"/>
<rect x="419" y="827" width="70" height="146" fill="#C4C4C4"/>
<rect x="419" y="288" width="70" height="146" fill="#C4C4C4"/>
<rect x="1281" y="288" width="70" height="146" fill="#C4C4C4"/>
<rect x="540" y="646" width="70" height="146" fill="#C4C4C4"/>
<rect x="540" y="107" width="70" height="146" fill="#C4C4C4"/>
<rect x="1384" y="107" width="70" height="146" fill="#C4C4C4"/>
<rect x="540" y="827" width="70" height="146" fill="#C4C4C4"/>
<rect x="540" y="288" width="70" height="146" fill="#C4C4C4"/>
<rect x="1384" y="288" width="70" height="146" fill="#C4C4C4"/>
<rect x="661" y="646" width="70" height="146" fill="#C4C4C4"/>
<rect x="661" y="107" width="70" height="146" fill="#C4C4C4"/>
<rect x="1487" y="107" width="70" height="146" fill="#C4C4C4"/>
<rect x="661" y="827" width="70" height="146" fill="#C4C4C4"/>
<rect x="661" y="288" width="70" height="146" fill="#C4C4C4"/>
<rect x="1487" y="288" width="70" height="146" fill="#C4C4C4"/>
<rect x="782" y="646" width="70" height="146" fill="#C4C4C4"/>
<rect x="782" y="107" width="70" height="146" fill="#C4C4C4"/>
<rect x="1590" y="107" width="70" height="146" fill="#C4C4C4"/>
<rect x="782" y="827" width="70" height="146" fill="#C4C4C4"/>
<rect x="782" y="288" width="70" height="146" fill="#C4C4C4"/>
<rect x="1590" y="288" width="70" height="146" fill="#C4C4C4"/>
<rect x="1683" y="466" width="193" height="124" fill="#C4C4C4"/>
<path d="M1742.66 528.029C1742.66 530.537 1742.24 532.729 1741.39 534.604C1740.55 536.467 1739.35 537.891 1737.81 538.875C1736.26 539.859 1734.46 540.352 1732.39 540.352C1730.38 540.352 1728.59 539.859 1727.03 538.875C1725.47 537.879 1724.26 536.467 1723.39 534.639C1722.54 532.799 1722.1 530.672 1722.07 528.258V526.412C1722.07 523.951 1722.5 521.777 1723.36 519.891C1724.21 518.004 1725.42 516.562 1726.98 515.566C1728.55 514.559 1730.34 514.055 1732.36 514.055C1734.41 514.055 1736.21 514.553 1737.77 515.549C1739.34 516.533 1740.55 517.969 1741.39 519.855C1742.24 521.73 1742.66 523.916 1742.66 526.412V528.029ZM1739.3 526.377C1739.3 523.342 1738.69 521.016 1737.47 519.398C1736.25 517.77 1734.55 516.955 1732.36 516.955C1730.22 516.955 1728.54 517.77 1727.31 519.398C1726.09 521.016 1725.47 523.266 1725.43 526.148V528.029C1725.43 530.971 1726.05 533.285 1727.28 534.973C1728.52 536.648 1730.22 537.486 1732.39 537.486C1734.57 537.486 1736.26 536.695 1737.46 535.113C1738.65 533.52 1739.27 531.24 1739.3 528.275V526.377ZM1761.84 528.697H1751.1V540H1747.72V514.406H1763.58V517.184H1751.1V525.938H1761.84V528.697ZM1781.73 528.697H1770.99V540H1767.62V514.406H1783.47V517.184H1770.99V525.938H1781.73V528.697ZM1791.14 540H1787.76V514.406H1791.14V540ZM1816.15 531.879C1815.84 534.586 1814.83 536.678 1813.15 538.154C1811.47 539.619 1809.24 540.352 1806.45 540.352C1803.43 540.352 1801 539.268 1799.17 537.1C1797.36 534.932 1796.45 532.031 1796.45 528.398V525.938C1796.45 523.559 1796.87 521.467 1797.71 519.662C1798.57 517.857 1799.78 516.475 1801.33 515.514C1802.89 514.541 1804.7 514.055 1806.75 514.055C1809.47 514.055 1811.65 514.816 1813.29 516.34C1814.93 517.852 1815.88 519.949 1816.15 522.633H1812.76C1812.47 520.594 1811.83 519.117 1810.84 518.203C1809.87 517.289 1808.51 516.832 1806.75 516.832C1804.59 516.832 1802.9 517.629 1801.67 519.223C1800.45 520.816 1799.84 523.084 1799.84 526.025V528.504C1799.84 531.281 1800.42 533.49 1801.58 535.131C1802.74 536.771 1804.36 537.592 1806.45 537.592C1808.32 537.592 1809.76 537.17 1810.76 536.326C1811.76 535.471 1812.43 533.988 1812.76 531.879H1816.15ZM1835.24 528.17H1824.15V537.24H1837.04V540H1820.78V514.406H1836.86V517.184H1824.15V525.41H1835.24V528.17Z" fill="black"/>
<rect x="56" y="257" width="70" height="26" fill="#F6F8AE"/>
<rect x="972" y="257" width="70" height="26" fill="#F6F8AE"/>
<rect x="56" y="797" width="70" height="26" fill="#F6F8AE"/>
<rect x="298" y="257" width="70" height="26" fill="#F6F8AE"/>
<rect x="1178" y="257" width="70" height="26" fill="#F6F8AE"/>
<rect x="298" y="797" width="70" height="26" fill="#F6F8AE"/>
<rect x="661" y="257" width="70" height="26" fill="#F6F8AE"/>
<rect x="1487" y="257" width="70" height="26" fill="#F6F8AE"/>
<rect x="661" y="797" width="70" height="26" fill="#F6F8AE"/>
<rect x="177" y="257" width="70" height="26" fill="#F6F8AE"/>
<rect x="1075" y="257" width="70" height="26" fill="#F6F8AE"/>
<rect x="177" y="797" width="70" height="26" fill="#F6F8AE"/>
<rect x="540" y="257" width="70" height="26" fill="#F6F8AE"/>
<rect x="1384" y="257" width="70" height="26" fill="#F6F8AE"/>
<rect x="540" y="797" width="70" height="26" fill="#F6F8AE"/>
<rect x="419" y="257" width="70" height="26" fill="#F6F8AE"/>
<rect x="1281" y="257" width="70" height="26" fill="#F6F8AE"/>
<rect x="419" y="797" width="70" height="26" fill="#F6F8AE"/>
<rect x="782" y="257" width="70" height="26" fill="#F6F8AE"/>
<rect x="1590" y="257" width="70" height="26" fill="#F6F8AE"/>
<rect x="782" y="797" width="70" height="26" fill="#F6F8AE"/>
<rect x="1042" y="733" width="878" height="347" fill="#009A22"/>
</svg>
